<svg width="16" height="20" viewBox="0 0 16 20" fill="none" xmlns="http://www.w3.org/2000/svg">
<g clip-path="url(#clip0_6_52)">
<path d="M4.07228 8.77531C3.60231 9.24528 3.60231 10.0085 4.07228 10.4785L11.291 17.6972C11.761 18.1672 12.5242 18.1672 12.9942 17.6972C13.4642 17.2273 13.4642 16.464 12.9942 15.9941L6.62516 9.62501L12.9904 3.25597C13.4604 2.786 13.4604 2.02277 12.9904 1.5528C12.5205 1.08282 11.7572 1.08282 11.2873 1.5528L4.06852 8.77155L4.07228 8.77531Z" fill="#633058"/>
</g>
<rect width="1.75" height="15.75" rx="0.875" transform="matrix(-1 0 0 1 1.75 1.75)" fill="#633058"/>
<defs>
<clipPath id="clip0_6_52">
<rect width="12.0312" height="19.25" fill="white" transform="matrix(-1 0 0 1 15.75 0)"/>
</clipPath>
</defs>
</svg>
