<svg width="98" height="32" viewBox="0 0 98 32" fill="none" xmlns="http://www.w3.org/2000/svg">
<g clip-path="url(#clip0_55_126)">
<path d="M5.69805 4.65039C5.91777 4.35254 6.26934 4.17188 6.64043 4.17188H18.3592C18.7303 4.17188 19.0818 4.34766 19.3016 4.65039L24.7703 12.0723C25.1023 12.5215 25.0682 13.1416 24.6971 13.5566L13.3689 26.0566C13.1492 26.3008 12.8318 26.4424 12.4998 26.4424C12.1678 26.4424 11.8553 26.3008 11.6307 26.0566L0.302539 13.5566C-0.0734376 13.1416 -0.102734 12.5215 0.229297 12.0723L5.69805 4.65039ZM7.57793 6.59375C7.4168 6.71582 7.37285 6.93555 7.47539 7.10645L10.2781 11.7744L3.09063 12.375C2.89043 12.3896 2.73418 12.5605 2.73418 12.7656C2.73418 12.9707 2.89043 13.1367 3.09063 13.1562L12.4656 13.9375C12.4852 13.9375 12.5096 13.9375 12.5291 13.9375L21.9041 13.1562C22.1043 13.1416 22.2605 12.9707 22.2605 12.7656C22.2605 12.5605 22.1043 12.3945 21.9041 12.375L14.7215 11.7793L17.5242 7.11133C17.6268 6.94043 17.5828 6.71582 17.4217 6.59863C17.2605 6.48145 17.0359 6.50098 16.8992 6.64746L12.4998 11.4082L8.10039 6.64258C7.96367 6.49609 7.73906 6.47656 7.57793 6.59375Z" fill="url(#paint0_linear_55_126)"/>
</g>
<path d="M52.9872 12.378C52.6092 12.224 52.2219 12.0443 51.8252 11.839C51.4332 11.6337 51.0365 11.398 50.6352 11.132C49.6459 11.86 48.5049 12.224 47.2122 12.224C46.3862 12.224 45.6185 12.0747 44.9092 11.776C44.2045 11.4727 43.5909 11.0527 43.0682 10.516C42.5455 9.97933 42.1372 9.34933 41.8432 8.626C41.5492 7.90267 41.4022 7.11633 41.4022 6.267C41.4022 5.427 41.5515 4.643 41.8502 3.915C42.1489 3.187 42.5642 2.54767 43.0962 1.997C43.6282 1.44633 44.2465 1.017 44.9512 0.709C45.6605 0.396333 46.4212 0.24 47.2332 0.24C48.0452 0.24 48.8035 0.393999 49.5082 0.701999C50.2129 1.01 50.8289 1.437 51.3562 1.983C51.8882 2.529 52.3035 3.166 52.6022 3.894C52.9009 4.61733 53.0502 5.399 53.0502 6.239C53.0502 7.093 52.8845 7.905 52.5532 8.675C52.2265 9.44033 51.7645 10.096 51.1672 10.642C51.5499 10.866 51.9209 11.0667 52.2802 11.244C52.6442 11.4213 52.9942 11.5683 53.3302 11.685L52.9872 12.378ZM47.2052 11.489C47.7139 11.489 48.2015 11.4167 48.6682 11.272C49.1349 11.1273 49.5665 10.915 49.9632 10.635C49.5619 10.3457 49.1769 10.0377 48.8082 9.711C48.4395 9.38433 48.0919 9.04367 47.7652 8.689L48.1152 8.297C48.8292 9.01567 49.6132 9.65967 50.4672 10.229C51.0272 9.74367 51.4589 9.15567 51.7622 8.465C52.0655 7.76967 52.2172 7.03 52.2172 6.246C52.2172 5.504 52.0889 4.81567 51.8322 4.181C51.5802 3.54167 51.2279 2.984 50.7752 2.508C50.3225 2.02733 49.7929 1.65167 49.1862 1.381C48.5842 1.11033 47.9332 0.975 47.2332 0.975C46.5285 0.975 45.8729 1.11033 45.2662 1.381C44.6595 1.65167 44.1275 2.02733 43.6702 2.508C43.2175 2.98867 42.8629 3.551 42.6062 4.195C42.3495 4.83433 42.2212 5.525 42.2212 6.267C42.2212 7.01367 42.3449 7.70433 42.5922 8.339C42.8442 8.97367 43.1942 9.52667 43.6422 9.998C44.0949 10.4693 44.6222 10.8357 45.2242 11.097C45.8309 11.3583 46.4912 11.489 47.2052 11.489ZM58.6645 12.224C57.6285 12.224 56.8912 11.9837 56.4525 11.503C56.0139 11.0177 55.7945 10.2057 55.7945 9.067V4.832H56.5365V8.962C56.5365 9.90467 56.6999 10.579 57.0265 10.985C57.3532 11.3863 57.8992 11.587 58.6645 11.587C59.4299 11.587 59.9735 11.3863 60.2955 10.985C60.6222 10.579 60.7855 9.90467 60.7855 8.962V4.832H61.5275V9.067C61.5275 10.2057 61.3082 11.0177 60.8695 11.503C60.4355 11.9837 59.7005 12.224 58.6645 12.224ZM67.6205 12.224C66.9438 12.224 66.3348 12.0607 65.7935 11.734C65.2568 11.4027 64.8298 10.95 64.5125 10.376C64.1998 9.802 64.0435 9.14867 64.0435 8.416C64.0435 7.67867 64.1998 7.02533 64.5125 6.456C64.8252 5.882 65.2498 5.43167 65.7865 5.105C66.3278 4.77367 66.9392 4.608 67.6205 4.608C68.3018 4.608 68.9178 4.77367 69.4685 5.105C70.0192 5.43633 70.4298 5.89367 70.7005 6.477V4.832H71.4425V12H70.7005V10.341C70.3972 10.929 69.9748 11.391 69.4335 11.727C68.8968 12.0583 68.2925 12.224 67.6205 12.224ZM67.7745 11.566C68.3532 11.566 68.8642 11.433 69.3075 11.167C69.7555 10.8963 70.1055 10.523 70.3575 10.047C70.6142 9.571 70.7425 9.02733 70.7425 8.416C70.7425 7.8 70.6142 7.25633 70.3575 6.785C70.1055 6.309 69.7555 5.938 69.3075 5.672C68.8642 5.40133 68.3532 5.266 67.7745 5.266C67.1958 5.266 66.6825 5.40133 66.2345 5.672C65.7912 5.938 65.4412 6.309 65.1845 6.785C64.9278 7.25633 64.7995 7.8 64.7995 8.416C64.7995 9.02733 64.9278 9.571 65.1845 10.047C65.4412 10.5183 65.7912 10.8893 66.2345 11.16C66.6825 11.4307 67.1958 11.566 67.7745 11.566ZM74.5826 12V4.832H75.3246V5.903C75.5393 5.47367 75.824 5.15167 76.1786 4.937C76.5333 4.71767 76.9533 4.608 77.4386 4.608C77.644 4.608 77.847 4.629 78.0476 4.671C78.253 4.70833 78.4303 4.75967 78.5796 4.825L78.2786 5.455C78.1433 5.38967 77.9893 5.34067 77.8166 5.308C77.6486 5.27533 77.483 5.259 77.3196 5.259C76.9836 5.259 76.6616 5.34767 76.3536 5.525C76.0503 5.69767 75.803 5.924 75.6116 6.204C75.4203 6.47933 75.3246 6.77333 75.3246 7.086V12H74.5826ZM82.2493 12.224C81.7546 12.224 81.372 12.056 81.1013 11.72C80.8353 11.3793 80.7023 10.901 80.7023 10.285V5.392H80.0233V4.832H80.7023V2.158H81.4443V4.832H83.2783V5.392H81.4443V10.25C81.4443 10.6793 81.526 11.0083 81.6893 11.237C81.8526 11.461 82.086 11.573 82.3893 11.573C82.6833 11.573 82.933 11.4937 83.1383 11.335L83.3273 11.93C83.192 12.0187 83.0286 12.0887 82.8373 12.14C82.646 12.196 82.45 12.224 82.2493 12.224ZM84.8556 12L90.4906 5.476H85.3876V4.832H91.9186L86.2696 11.356H91.7786V12H84.8556Z" fill="#6E2789"/>
<path d="M41.3563 28L45.8783 16.45H46.5923L51.1143 28H50.2883L48.7763 24.059H43.7013L42.1823 28H41.3563ZM43.9603 23.38H48.5173L46.2353 17.444L43.9603 23.38ZM56.6814 31.85C55.79 31.85 55.0364 31.6703 54.4204 31.311C53.8044 30.9563 53.3424 30.4407 53.0344 29.764L53.6784 29.484C53.907 30.0113 54.2897 30.4337 54.8264 30.751C55.3677 31.0683 55.9884 31.227 56.6884 31.227C57.267 31.227 57.7874 31.1103 58.2494 30.877C58.716 30.6483 59.0824 30.3147 59.3484 29.876C59.619 29.4373 59.7544 28.9053 59.7544 28.28V26.341C59.4557 26.929 59.0334 27.391 58.4874 27.727C57.946 28.0583 57.3417 28.224 56.6744 28.224C55.9977 28.224 55.3887 28.0607 54.8474 27.734C54.3107 27.4027 53.8837 26.95 53.5664 26.376C53.2537 25.802 53.0974 25.1487 53.0974 24.416C53.0974 23.6787 53.2537 23.0253 53.5664 22.456C53.879 21.882 54.306 21.4317 54.8474 21.105C55.3887 20.7737 56 20.608 56.6814 20.608C57.3534 20.608 57.96 20.7737 58.5014 21.105C59.0427 21.4363 59.4604 21.8937 59.7544 22.477V20.832H60.4964V28.196C60.4964 29.008 60.3377 29.6847 60.0204 30.226C59.703 30.7673 59.2574 31.1733 58.6834 31.444C58.114 31.7147 57.4467 31.85 56.6814 31.85ZM56.8214 27.566C57.4 27.566 57.9134 27.433 58.3614 27.167C58.8094 26.8963 59.1594 26.523 59.4114 26.047C59.668 25.571 59.7964 25.0273 59.7964 24.416C59.7964 23.8047 59.668 23.261 59.4114 22.785C59.1594 22.309 58.8094 21.938 58.3614 21.672C57.9134 21.4013 57.4 21.266 56.8214 21.266C56.2474 21.266 55.7364 21.4013 55.2884 21.672C54.8404 21.938 54.488 22.309 54.2314 22.785C53.9794 23.261 53.8534 23.8047 53.8534 24.416C53.8534 25.0273 53.9794 25.571 54.2314 26.047C54.488 26.5183 54.8404 26.8893 55.2884 27.16C55.7364 27.4307 56.2474 27.566 56.8214 27.566ZM66.7025 28.224C66.0259 28.224 65.4169 28.0607 64.8755 27.734C64.3389 27.4027 63.9119 26.95 63.5945 26.376C63.2819 25.802 63.1255 25.1487 63.1255 24.416C63.1255 23.6787 63.2819 23.0253 63.5945 22.456C63.9072 21.882 64.3319 21.4317 64.8685 21.105C65.4099 20.7737 66.0212 20.608 66.7025 20.608C67.3839 20.608 67.9999 20.7737 68.5505 21.105C69.1012 21.4363 69.5119 21.8937 69.7825 22.477V20.832H70.5245V28H69.7825V26.341C69.4792 26.929 69.0569 27.391 68.5155 27.727C67.9789 28.0583 67.3745 28.224 66.7025 28.224ZM66.8565 27.566C67.4352 27.566 67.9462 27.433 68.3895 27.167C68.8375 26.8963 69.1875 26.523 69.4395 26.047C69.6962 25.571 69.8245 25.0273 69.8245 24.416C69.8245 23.8 69.6962 23.2563 69.4395 22.785C69.1875 22.309 68.8375 21.938 68.3895 21.672C67.9462 21.4013 67.4352 21.266 66.8565 21.266C66.2779 21.266 65.7645 21.4013 65.3165 21.672C64.8732 21.938 64.5232 22.309 64.2665 22.785C64.0099 23.2563 63.8815 23.8 63.8815 24.416C63.8815 25.0273 64.0099 25.571 64.2665 26.047C64.5232 26.5183 64.8732 26.8893 65.3165 27.16C65.7645 27.4307 66.2779 27.566 66.8565 27.566ZM73.6647 28V20.832H74.4067V21.854C74.584 21.5133 74.8757 21.2217 75.2817 20.979C75.6923 20.7317 76.2057 20.608 76.8217 20.608C77.377 20.608 77.853 20.7223 78.2497 20.951C78.6463 21.175 78.9497 21.5063 79.1597 21.945C79.3697 22.379 79.4747 22.911 79.4747 23.541V28H78.7327V23.674C78.7327 22.8807 78.5483 22.2763 78.1797 21.861C77.8157 21.441 77.3 21.231 76.6327 21.231C76.166 21.231 75.767 21.3243 75.4357 21.511C75.1043 21.6977 74.85 21.9427 74.6727 22.246C74.4953 22.5493 74.4067 22.8737 74.4067 23.219V28H73.6647ZM85.808 28.224C85.2714 28.224 84.7674 28.1307 84.296 27.944C83.8294 27.7527 83.421 27.4867 83.071 27.146C82.721 26.8053 82.4457 26.404 82.245 25.942C82.049 25.4753 81.951 24.9667 81.951 24.416C81.951 23.8653 82.049 23.359 82.245 22.897C82.441 22.435 82.714 22.0337 83.064 21.693C83.414 21.3477 83.8224 21.0817 84.289 20.895C84.7557 20.7037 85.262 20.608 85.808 20.608C86.2794 20.608 86.7274 20.6803 87.152 20.825C87.5767 20.9697 87.9477 21.168 88.265 21.42L87.929 21.924C87.3597 21.476 86.6737 21.252 85.871 21.252C85.2504 21.252 84.6997 21.3897 84.219 21.665C83.743 21.9403 83.3697 22.3183 83.099 22.799C82.8284 23.275 82.693 23.814 82.693 24.416C82.693 25.018 82.8284 25.5593 83.099 26.04C83.3697 26.516 83.7454 26.8917 84.226 27.167C84.7067 27.4423 85.2597 27.58 85.885 27.58C86.2724 27.58 86.6387 27.524 86.984 27.412C87.334 27.2953 87.6444 27.1273 87.915 26.908L88.265 27.412C87.943 27.664 87.572 27.8623 87.152 28.007C86.732 28.1517 86.284 28.224 85.808 28.224ZM91.3474 31.64L92.9714 28L89.5554 20.832H90.3954L93.3914 27.209L96.1214 20.832H96.9614L92.1734 31.64H91.3474Z" fill="#6E2789"/>
<defs>
<linearGradient id="paint0_linear_55_126" x1="12" y1="-12" x2="12.499" y2="26.4424" gradientUnits="userSpaceOnUse">
<stop stop-color="#0C0A1F"/>
<stop offset="1" stop-color="#76396C"/>
</linearGradient>
<clipPath id="clip0_55_126">
<rect width="25" height="25" fill="white" transform="translate(0 3)"/>
</clipPath>
</defs>
</svg>
